<?xml version="1.0" encoding="utf-8"?>
<!-- Generator: Adobe Illustrator 16.0.0, SVG Export Plug-In . SVG Version: 6.00 Build 0)  -->
<!DOCTYPE svg PUBLIC "-//W3C//DTD SVG 1.1//EN" "http://www.w3.org/Graphics/SVG/1.1/DTD/svg11.dtd">
<svg version="1.1" id="Layer_1" xmlns="http://www.w3.org/2000/svg" xmlns:xlink="http://www.w3.org/1999/xlink" x="0px" y="0px"
	 width="212.795px" height="220.59px" viewBox="0 0 212.795 220.59" enable-background="new 0 0 212.795 220.59"
	 xml:space="preserve">
<path fill="#F7B63E" d="M206.382,36.693v138.896c0,2.718-2.207,4.924-4.926,4.924H11.338c-2.719,0-4.925-2.206-4.925-4.924V36.693
	l73.042,69.448l26.943,25.612l26.941-25.612L206.382,36.693z"/>
<path fill="#10003B" d="M201.456,182.514H11.338c-3.819,0-6.925-3.106-6.925-6.925V36.694c0-0.8,0.477-1.523,1.211-1.838
	c0.736-0.315,1.588-0.163,2.167,0.389l98.606,93.749l98.606-93.749c0.579-0.552,1.432-0.704,2.167-0.389
	c0.734,0.315,1.211,1.038,1.211,1.838v138.895C208.382,179.408,205.275,182.514,201.456,182.514 M8.413,41.354v134.234
	c0,1.613,1.312,2.925,2.925,2.925h190.118c1.613,0,2.926-1.312,2.926-2.925V41.354l-96.606,91.848c-0.771,0.734-1.984,0.734-2.756,0
	L8.413,41.354z"/>
<path fill="#FFD161" d="M206.382,36.693l-73.043,69.448l-26.941,25.612l-26.943-25.612L6.413,36.693
	c0-2.719,2.206-4.925,4.925-4.925h190.118C204.175,31.769,206.382,33.975,206.382,36.693"/>
<path fill="#10003B" d="M106.398,133.753c-0.496,0-0.993-0.184-1.378-0.551L5.035,38.143c-0.397-0.377-0.622-0.901-0.622-1.449
	c0-3.818,3.107-6.925,6.925-6.925h190.118c3.82,0,6.926,3.107,6.926,6.925c0,0.548-0.225,1.072-0.622,1.449l-99.984,95.06
	C107.39,133.569,106.894,133.753,106.398,133.753 M8.514,35.931l97.884,93.063l97.883-93.063c-0.337-1.244-1.476-2.162-2.825-2.162
	H11.338C9.988,33.769,8.85,34.687,8.514,35.931 M206.382,36.693h0.01H206.382z"/>
<path fill="#F7B63E" d="M206.382,175.589c0,2.719-2.207,4.925-4.926,4.925H11.338c-2.719,0-4.925-2.206-4.925-4.925l73.042-69.447
	l26.943,25.611l26.941-25.611L206.382,175.589z"/>
<path fill="#10003B" d="M201.456,182.514H11.338c-3.818,0-6.925-3.106-6.925-6.925c0-0.548,0.225-1.072,0.622-1.449l73.042-69.447
	c0.772-0.735,1.985-0.735,2.756,0l25.565,24.301l25.563-24.301c0.771-0.735,1.984-0.735,2.756,0l73.043,69.447
	c0.398,0.377,0.622,0.901,0.622,1.449C208.382,179.408,205.275,182.514,201.456,182.514 M8.514,176.352
	c0.336,1.244,1.475,2.162,2.824,2.162h190.118c1.35,0,2.489-0.918,2.826-2.162l-70.943-67.45l-25.563,24.301
	c-0.772,0.734-1.985,0.734-2.756,0l-25.565-24.301L8.514,176.352z"/>
<polygon fill="#FFD161" points="79.456,106.141 6.416,175.593 6.416,36.69 "/>
<path fill="#10003B" d="M6.416,177.593c-0.267,0-0.534-0.053-0.788-0.162c-0.735-0.315-1.212-1.038-1.212-1.838V36.69
	c0-0.8,0.477-1.523,1.211-1.838c0.736-0.315,1.588-0.162,2.167,0.389l73.04,69.451c0.397,0.377,0.622,0.901,0.622,1.449
	c0,0.548-0.225,1.072-0.622,1.449l-73.04,69.452C7.415,177.403,6.919,177.593,6.416,177.593 M8.416,41.351v129.581l68.138-64.791
	L8.416,41.351z"/>
<path fill="#10003B" d="M152.941,47.313h-62.06c-1.104,0-2-0.896-2-2c0-1.104,0.896-2,2-2h62.06c1.104,0,2,0.896,2,2
	C154.941,46.418,154.046,47.313,152.941,47.313"/>
<path fill="#10003B" d="M80.293,47.313h-20.44c-1.105,0-2-0.896-2-2c0-1.104,0.895-2,2-2h20.44c1.104,0,2,0.896,2,2
	C82.293,46.418,81.397,47.313,80.293,47.313"/>
<path fill="#10003B" d="M19.219,129.813c-1.104,0-2-0.896-2-2V91.12c0-1.105,0.896-2,2-2s2,0.895,2,2v36.693
	C21.219,128.917,20.323,129.813,19.219,129.813"/>
</svg>
