<?xml version="1.0" standalone="no"?>
<svg width="895" height="895" title="polygons" version="1.1" viewBox="0 0 895 895" xmlns="http://www.w3.org/2000/svg" class="svg-paper"><!----> <g><desc>pwidth:895;pheight:895;pcolor:;seed:1221};sf:i+i*7;rf:10*sin(i/2);xf:400;yf:400;qt:27;sd:5;rn:0.8;minrd:41;maxrd:50;mina:33;maxa:360;cv:curveCardinalClosed;rd:false</desc> <path stroke="#26A66A" stroke-width="1mm" fill="none" d="M439.60,389.39C438.93,386.88,404.74,359.19,402.15,359.06C399.55,358.92,362.65,382.88,361.72,385.31C360.79,387.73,372.18,430.23,374.20,431.86C376.22,433.50,420.15,435.80,422.33,434.39C424.51,432.97,440.28,391.90,439.60,389.39"/><path stroke="#26A66A" stroke-width="1mm" fill="none" d="M446.10,383.41C445.05,380.48,401.57,350.93,398.47,351.02C395.36,351.12,353.81,383.34,352.95,386.32C352.08,389.31,369.88,438.78,372.45,440.52C375.02,442.27,427.57,440.62,430.03,438.72C432.48,436.82,447.16,386.33,446.10,383.41"/><path stroke="#26A66A" stroke-width="1mm" fill="none" d="M452.31,377.35C450.87,374.03,398.22,342.91,394.62,343.25C391.02,343.60,345.16,384.05,344.37,387.58C343.58,391.11,367.89,447.23,371.00,449.07C374.11,450.91,435.00,445.14,437.71,442.75C440.42,440.36,453.74,380.67,452.31,377.35"/><path stroke="#26A66A" stroke-width="1mm" fill="none" d="M458.92,372.56C457.18,368.82,396.20,334.98,392.11,335.48C388.02,335.98,336.99,383.52,336.20,387.57C335.41,391.61,364.86,454.84,368.46,456.84C372.07,458.84,441.29,450.37,444.31,447.56C447.32,444.75,460.66,376.29,458.92,372.56"/><path stroke="#26A66A" stroke-width="1mm" fill="none" d="M466.64,370.20C464.75,365.97,396.85,326.92,392.25,327.41C387.65,327.90,329.53,380.41,328.57,384.94C327.62,389.47,359.59,460.97,363.60,463.28C367.61,465.59,445.50,457.27,448.93,454.17C452.37,451.07,468.53,374.43,466.64,370.20"/><path stroke="#26A66A" stroke-width="1mm" fill="none" d="M475.63,370.99C473.79,366.20,400.91,318.84,395.78,319.11C390.65,319.38,323.10,374.05,321.77,379.01C320.44,383.98,351.56,465.12,355.87,467.92C360.17,470.72,446.97,466.19,450.96,462.96C454.95,459.73,477.47,375.79,475.63,370.99"/><path stroke="#26A66A" stroke-width="1mm" fill="none" d="M485.37,374.85C483.78,369.44,408.11,311.19,402.47,311.03C396.83,310.88,318.04,364.84,316.15,370.16C314.26,375.48,341.24,467.08,345.71,470.52C350.18,473.97,445.64,476.61,450.30,473.43C454.95,470.24,486.97,380.27,485.37,374.85"/><path stroke="#26A66A" stroke-width="1mm" fill="none" d="M495.06,380.67C493.83,374.65,417.10,304.32,410.99,303.63C404.88,302.93,314.29,354.17,311.74,359.76C309.19,365.36,329.92,467.35,334.46,471.51C338.99,475.66,442.40,487.46,447.75,484.43C453.11,481.40,496.28,386.70,495.06,380.67"/><path stroke="#26A66A" stroke-width="1mm" fill="none" d="M504.12,386.42C503.26,379.82,425.80,298.00,419.26,296.78C412.71,295.56,310.97,343.94,307.78,349.79C304.60,355.64,319.17,467.35,323.75,472.19C328.33,477.02,439.08,497.68,445.09,494.83C451.10,491.97,504.98,393.02,504.12,386.42"/><path stroke="#26A66A" stroke-width="1mm" fill="none" d="M512.53,389.71C511.88,382.58,431.97,291.38,424.99,289.80C418.00,288.21,306.58,336.03,302.91,342.18C299.25,348.34,310.29,469.08,315.01,474.47C319.73,479.86,437.98,506.67,444.56,503.84C451.14,501.02,513.18,396.84,512.53,389.71"/><path stroke="#26A66A" stroke-width="1mm" fill="none" d="M520.46,388.59C519.74,380.95,433.86,283.58,426.37,281.91C418.89,280.24,299.74,331.82,295.84,338.43C291.93,345.03,304.18,474.28,309.25,480.04C314.33,485.79,441.04,514.09,448.08,511.04C455.12,507.99,521.18,396.23,520.46,388.59"/><path stroke="#26A66A" stroke-width="1mm" fill="none" d="M527.76,382.17C526.63,374.07,430.58,274.41,422.52,272.98C414.47,271.55,290.01,332.11,286.16,339.33C282.31,346.55,301.44,483.63,307.12,489.52C312.79,495.41,449.08,519.58,456.44,516.00C463.79,512.42,528.89,390.27,527.76,382.17"/><path stroke="#26A66A" stroke-width="1mm" fill="none" d="M533.90,371.03C532.07,362.54,422.47,264.58,413.83,263.70C405.19,262.82,278.15,336.78,274.64,344.73C271.14,352.68,302.22,496.35,308.70,502.14C315.17,507.93,461.42,522.77,468.93,518.40C476.43,514.03,535.74,379.52,533.90,371.03"/><path stroke="#26A66A" stroke-width="1mm" fill="none" d="M538.55,357.24C535.84,348.46,411.34,255.15,402.15,255.02C392.96,254.88,265.75,344.45,262.78,353.15C259.81,361.86,305.69,510.52,313.04,516.03C320.40,521.55,475.96,523.85,483.48,518.56C491.00,513.26,541.26,366.03,538.55,357.24"/><path stroke="#26A66A" stroke-width="1mm" fill="none" d="M542.29,343.75C538.72,334.73,400.16,246.69,390.47,247.30C380.79,247.90,254.24,352.48,251.83,361.87C249.41,371.27,309.76,523.94,317.95,529.14C326.14,534.34,489.99,524.12,497.46,517.94C504.94,511.76,545.85,352.77,542.29,343.75"/><path stroke="#26A66A" stroke-width="1mm" fill="none" d="M546.64,333.54C542.43,324.24,392.25,238.86,382.11,240.00C371.96,241.13,244.36,357.57,242.30,367.57C240.24,377.57,311.55,534.92,320.43,539.96C329.30,545.01,500.98,525.81,508.52,518.93C516.06,512.05,550.86,342.84,546.64,333.54"/><path stroke="#26A66A" stroke-width="1mm" fill="none" d="M553.30,328.86C548.79,319.14,390.35,230.94,379.72,232.22C369.08,233.51,236.23,356.93,234.17,367.45C232.10,377.96,308.43,542.45,317.79,547.66C327.15,552.87,507.18,531.11,515.03,523.81C522.88,516.52,557.81,338.58,553.30,328.86"/><path stroke="#26A66A" stroke-width="1mm" fill="none" d="M562.95,330.88C558.57,320.55,395.80,222.69,384.62,223.67C373.44,224.64,230.07,349.20,227.55,360.14C225.02,371.07,299.18,545.91,308.80,551.69C318.42,557.48,507.62,540.97,516.09,533.61C524.56,526.25,567.33,341.22,562.95,330.88"/><path stroke="#26A66A" stroke-width="1mm" fill="none" d="M574.79,339.40C570.95,328.32,408.11,214.81,396.38,215.04C384.65,215.26,226.38,335.06,222.97,346.29C219.56,357.51,284.59,545.06,294.21,551.77C303.83,558.47,502.30,554.59,511.65,547.51C521.00,540.43,578.64,350.48,574.79,339.40"/><path stroke="#26A66A" stroke-width="1mm" fill="none" d="M587.06,352.50C584.05,340.64,424.84,208.21,412.63,207.41C400.42,206.61,225.28,317.11,220.74,328.48C216.21,339.84,267.18,540.56,276.58,548.38C285.99,556.21,492.63,569.76,502.98,563.23C513.33,556.70,590.07,364.36,587.06,352.50"/><path stroke="#26A66A" stroke-width="1mm" fill="none" d="M598.21,366.62C596.09,354.05,442.11,203.05,429.50,201.18C416.90,199.31,225.70,299.09,220.02,310.50C214.35,321.91,250.17,534.59,259.27,543.51C268.37,552.43,481.70,584.09,493.00,578.19C504.30,572.30,600.33,379.19,598.21,366.62"/><path stroke="#26A66A" stroke-width="1mm" fill="none" d="M607.78,377.42C606.34,364.24,455.70,198.12,442.73,195.41C429.76,192.71,225.22,284.64,218.63,296.14C212.05,307.64,236.28,530.58,245.18,540.40C254.08,550.21,473.60,596.06,485.68,590.63C497.77,585.20,609.21,390.59,607.78,377.42"/><path stroke="#26A66A" stroke-width="1mm" fill="none" d="M616.17,381.09C614.98,367.38,462.22,191.66,448.81,188.56C435.41,185.47,221.08,276.44,213.99,288.24C206.91,300.03,227.20,531.98,236.23,542.37C245.25,552.75,472.12,605.13,484.79,599.75C497.45,594.37,617.37,394.79,616.17,381.09"/><path stroke="#26A66A" stroke-width="1mm" fill="none" d="M623.66,375.52C622.11,361.34,459.80,182.62,445.84,179.72C431.87,176.81,211.74,275.95,204.66,288.34C197.58,300.72,223.85,540.71,233.44,551.27C243.03,561.83,479.39,611.01,492.40,605.15C505.40,599.30,625.22,389.70,623.66,375.52"/><path stroke="#26A66A" stroke-width="1mm" fill="none" d="M629.71,361.01C627.24,346.44,448.52,171.63,433.90,169.48C419.28,167.33,197.80,283.29,191.24,296.52C184.68,309.76,226.52,556.24,237.08,566.57C247.64,576.90,494.98,613.27,508.07,606.42C521.16,599.57,632.19,375.57,629.71,361.01"/><path stroke="#26A66A" stroke-width="1mm" fill="none" d="M633.49,340.32C629.71,325.52,430.65,160.47,415.40,159.49C400.15,158.52,181.66,296.83,176.02,311.03C170.38,325.24,234.41,575.77,246.18,585.52C257.94,595.28,516.00,611.80,528.91,603.63C541.82,595.45,637.28,355.13,633.49,340.32"/><path stroke="#26A66A" stroke-width="1mm" fill="none" d="M635.15,318.11C629.95,303.20,410.56,150.72,394.78,151.05C378.99,151.39,166.19,312.92,161.63,328.04C157.06,343.15,244.93,595.46,257.90,604.47C270.86,613.48,537.98,607.88,550.55,598.33C563.13,588.79,640.34,333.01,635.15,318.11"/></g></svg>