<?xml version="1.0" encoding="iso-8859-1"?>
<!-- Generator: Adobe Illustrator 19.0.0, SVG Export Plug-In . SVG Version: 6.00 Build 0)  -->
<svg version="1.1" id="Layer_1" xmlns="http://www.w3.org/2000/svg" xmlns:xlink="http://www.w3.org/1999/xlink" x="0px" y="0px"
	 viewBox="0 0 512 512" style="enable-background:new 0 0 512 512;" xml:space="preserve">
<path style="fill:#CCCCCC;" d="M211.828,159.094l-70.087-78.506c8.722-8.99,10.247-23.158,2.934-33.927l0,0
	c-8.371-12.326-25.15-15.532-37.476-7.162L72.213,63.261c-12.326,8.371-15.532,25.15-7.161,37.476l0,0
	c7.364,10.842,21.23,14.625,32.852,9.681l33.06,48.681L211.828,159.094z"/>
<path style="fill:#B3B3B3;" d="M167.961,159.094l-51.984-60.38l9.496-6.483c-3.505,2.381-7.371,3.822-11.301,4.387l-0.21-0.244
	l-0.431,0.323c-9.691,1.155-19.673-2.997-25.535-11.628c-8.02-11.809-5.407-27.701,5.665-36.375l-21.45,14.567
	c-12.326,8.371-15.532,25.15-7.161,37.476c7.364,10.842,21.23,14.625,32.852,9.681l33.06,48.681L167.961,159.094z"/>
<path style="fill:#4EB79B;" d="M474.76,227.704H37.24c-20.567,0-37.24-16.673-37.24-37.24l0,0c0-20.567,16.673-37.24,37.24-37.24
	h437.52c20.567,0,37.24,16.673,37.24,37.24l0,0C512,211.031,495.327,227.704,474.76,227.704z"/>
<path style="fill:#40A084;" d="M79.826,190.464L79.826,190.464c0-20.567,16.673-37.24,37.24-37.24H37.24
	c-20.567,0-37.24,16.673-37.24,37.24l0,0c0,20.567,16.673,37.24,37.24,37.24h79.826C96.499,227.704,79.826,211.031,79.826,190.464z"
	/>
<path style="fill:#4EB79B;" d="M477.731,227.709c0,5.107-0.176,10.166-0.517,15.179c-5.693,84.345-58.578,155.754-132.475,188.06
	v18.313c0,15.413-12.49,27.904-27.904,27.904H195.161c-15.413,0-27.904-12.49-27.904-27.904v-18.313
	C93.371,398.641,40.475,327.232,34.782,242.887c-0.34-5.013-0.517-10.072-0.517-15.179L477.731,227.709L477.731,227.709z"/>
<g>
	<path style="fill:#40A084;" d="M477.731,227.709c0,5.107-0.176,10.166-0.517,15.179c-0.81,0.059-1.632,0.082-2.453,0.082H37.235
		c-0.822,0-1.643-0.023-2.453-0.082c-0.34-5.013-0.517-10.072-0.517-15.179H477.731z"/>
	<path style="fill:#40A084;" d="M221.258,477.163h-26.096c-15.413,0-27.904-12.49-27.904-27.904v-18.313
		C88.982,396.716,34.266,318.604,34.266,227.709h95.086c0,90.895,31.249,169.007,75.963,203.238v18.313
		C205.316,464.674,212.453,477.163,221.258,477.163z"/>
	<rect x="167.258" y="430.953" style="fill:#40A084;" width="177.483" height="18.313"/>
</g>
<g>
</g>
<g>
</g>
<g>
</g>
<g>
</g>
<g>
</g>
<g>
</g>
<g>
</g>
<g>
</g>
<g>
</g>
<g>
</g>
<g>
</g>
<g>
</g>
<g>
</g>
<g>
</g>
<g>
</g>
</svg>
